Coordinates
version=1
nRows=32
nColumns=12
inDegrees=yes

Units are S.I. units (second, meters, Newtons, ...)
Angles are in degrees

endheader
time	SC_y	SC_z	SC_x	AC_y	AC_z	AC_x	GH_y	GH_z	GH_yy	EL_x	PS_y
       0.0              -39.96          1.432          46.61          42.43         -12.39         -19.58          136.1        -0.9387         -172.7          57.98          159.5
  0.009668              -39.96          1.434          46.61          42.43         -12.39         -19.58          136.1        -0.9285         -172.6          57.98          159.5
   0.01934              -39.97          1.437          46.62          42.43         -12.39         -19.57          136.0        -0.9177         -172.6          57.99          159.5
     0.029              -39.97          1.439          46.62          42.42         -12.39         -19.57          136.0        -0.9062         -172.6          57.99          159.4
   0.03867              -39.97          1.442          46.62          42.42         -12.39         -19.57          136.0        -0.8939         -172.5          57.99          159.4
   0.04834              -39.97          1.445          46.63          42.42         -12.39         -19.57          135.9        -0.8809         -172.5          57.99          159.4
   0.05801              -39.98          1.448          46.63          42.42         -12.38         -19.57          135.9         -0.867         -172.5          57.99          159.4
   0.06768              -39.98          1.451          46.63          42.42         -12.38         -19.57          135.8        -0.8521         -172.4          57.99          159.4
   0.07734              -39.98          1.454          46.64          42.42         -12.38         -19.56          135.8        -0.8361         -172.4          57.99          159.3
   0.08701              -39.99          1.458          46.64          42.42         -12.38         -19.56          135.7         -0.819         -172.3          57.99          159.3
   0.09668              -39.99          1.462          46.64          42.42         -12.38         -19.56          135.6        -0.8006         -172.3           58.0          159.3
    0.1063              -39.99          1.466          46.65          42.41         -12.38         -19.56          135.6        -0.7808         -172.2           58.0          159.3
     0.116               -40.0          1.471          46.65          42.41         -12.38         -19.55          135.5        -0.7595         -172.2           58.0          159.2
    0.1257               -40.0          1.476          46.66          42.41         -12.38         -19.55          135.4        -0.7365         -172.1           58.0          159.2
    0.1354              -40.01          1.481          46.66          42.41         -12.38         -19.55          135.3        -0.7116         -172.0           58.0          159.2
     0.145              -40.01          1.487          46.67          42.41         -12.38         -19.54          135.3        -0.6845         -171.9          58.01          159.1
    0.1547              -40.02          1.493          46.68          42.41         -12.37         -19.54          135.2        -0.6552         -171.9          58.01          159.1
    0.1644              -40.03            1.5          46.68           42.4         -12.37         -19.53          135.0        -0.6232         -171.8          58.01          159.0
     0.174              -40.03          1.508          46.69           42.4         -12.37         -19.53          134.9        -0.5882         -171.7          58.02          159.0
    0.1837              -40.04          1.516           46.7           42.4         -12.37         -19.52          134.8        -0.5499         -171.6          58.02          158.9
    0.1934              -40.05          1.525          46.71          42.39         -12.37         -19.52          134.7        -0.5079         -171.4          58.02          158.9
     0.203              -40.06          1.535          46.72          42.39         -12.37         -19.51          134.5        -0.4617         -171.3          58.03          158.8
    0.2127              -40.07          1.546          46.73          42.39         -12.36          -19.5          134.3        -0.4106         -171.2          58.03          158.7
    0.2224              -40.08          1.558          46.74          42.38         -12.36          -19.5          134.1         -0.354         -171.0          58.04          158.6
     0.232              -40.09          1.572          46.76          42.38         -12.36         -19.49          133.9        -0.2911         -170.8          58.04          158.5
    0.2417               -40.1          1.587          46.77          42.37         -12.35         -19.48          133.7        -0.2209         -170.6          58.05          158.4
    0.2514              -40.12          1.604          46.79          42.37         -12.35         -19.47          133.4        -0.1423         -170.4          58.06          158.3
     0.261              -40.14          1.623          46.81          42.36         -12.35         -19.45          133.1       -0.05385         -170.1          58.07          158.2
    0.2707              -40.16          1.644          46.83          42.35         -12.34         -19.44          132.8         0.0461         -169.8          58.08          158.0
    0.2804              -40.18          1.669          46.86          42.34         -12.34         -19.42          132.4         0.1596         -169.5          58.09          157.9
      0.29              -40.21          1.696          46.89          42.33         -12.33         -19.41          132.0         0.2891         -169.1           58.1          157.7
    0.2997              -40.24          1.728          46.92          42.32         -12.32         -19.38          131.5         0.4378         -168.7          58.11          157.4
